<?xml version="1.0" standalone="no"?>
<!DOCTYPE svg PUBLIC "-//W3C//DTD SVG 20010904//EN"
 "http://www.w3.org/TR/2001/REC-SVG-20010904/DTD/svg10.dtd">
<svg version="1.0" xmlns="http://www.w3.org/2000/svg"
 width="512.000000pt" height="512.000000pt" viewBox="0 0 512.000000 512.000000"
 preserveAspectRatio="xMidYMid meet">

<g transform="translate(0.000000,512.000000) scale(0.100000,-0.100000)"
fill="#000000" stroke="none">
<path d="M115 5101 c-48 -22 -79 -54 -100 -103 -13 -33 -15 -294 -15 -2438 0
-2144 2 -2405 15 -2438 21 -49 52 -81 100 -103 39 -18 128 -19 2445 -19 2317
0 2406 1 2445 19 48 22 79 54 100 103 13 33 15 294 15 2440 0 2315 -1 2404
-19 2443 -22 48 -54 79 -103 100 -33 13 -294 15 -2440 15 -2315 0 -2404 -1
-2443 -19z m1182 -751 c60 -36 63 -52 63 -332 0 -376 19 -358 -380 -358 -302
0 -320 3 -364 63 -20 27 -21 41 -21 295 0 292 0 293 62 333 26 17 53 19 318
19 270 0 292 -1 322 -20z m2558 -1054 c103 -27 253 -93 329 -145 140 -97 248
-262 295 -452 40 -163 43 -224 48 -1021 l5 -777 -21 -45 c-36 -74 -46 -76
-373 -76 -263 0 -285 1 -315 20 -65 39 -63 19 -63 657 0 909 -16 1025 -154
1165 -233 237 -717 120 -867 -209 -70 -152 -80 -261 -86 -955 -5 -546 -7 -589
-24 -617 -36 -60 -49 -62 -375 -59 l-296 3 -34 37 -34 38 0 1164 0 1163 21 27
c42 53 57 56 329 56 290 0 305 -3 340 -74 16 -34 20 -62 20 -148 0 -116 4
-138 28 -138 8 0 51 35 96 78 142 136 292 231 445 282 151 51 215 59 411 56
150 -3 189 -7 275 -30z m-2569 -42 c18 -9 43 -31 54 -49 20 -32 20 -47 20
-1179 0 -1266 4 -1185 -63 -1226 -30 -19 -52 -20 -315 -20 -326 0 -337 2 -372
74 -20 42 -20 55 -20 1172 0 1260 -5 1172 69 1221 33 23 40 23 313 23 236 0
285 -3 314 -16z"/>
</g>
</svg>
