<?xml version="1.0" standalone="no"?>
<!DOCTYPE svg PUBLIC "-//W3C//DTD SVG 20010904//EN"
 "http://www.w3.org/TR/2001/REC-SVG-20010904/DTD/svg10.dtd">
<svg version="1.0" xmlns="http://www.w3.org/2000/svg"
 width="256.000000pt" height="256.000000pt" viewBox="0 0 256.000000 256.000000"
 preserveAspectRatio="xMidYMid meet">

<g transform="translate(0.000000,256.000000) scale(0.100000,-0.100000)"
fill="#000000" stroke="none">
<path d="M1640 2260 c-25 -5 -78 -26 -119 -46 -178 -88 -283 -273 -269 -474
l5 -70 -41 0 c-70 0 -216 30 -323 65 -207 69 -388 180 -547 338 -55 54 -103
94 -108 89 -19 -19 -50 -132 -55 -202 -10 -141 41 -274 144 -378 l63 -62 -43
6 c-23 4 -70 17 -105 29 l-62 23 0 -42 c0 -96 55 -218 137 -300 62 -63 108
-93 185 -121 l63 -23 -36 -7 c-20 -4 -68 -5 -108 -3 -81 3 -81 5 -32 -87 60
-113 196 -212 326 -236 33 -7 67 -13 74 -16 33 -9 -173 -124 -289 -161 -106
-34 -178 -45 -298 -46 -131 -1 -131 -1 23 -76 110 -53 214 -88 345 -116 131
-28 419 -26 560 5 178 38 326 97 464 186 367 235 615 668 633 1107 l6 136 69
62 c67 60 173 179 166 186 -2 2 -37 -7 -78 -21 -42 -13 -98 -27 -126 -32 l-50
-10 66 66 c42 41 79 90 99 128 17 34 31 65 31 67 0 3 -37 -13 -82 -34 -46 -21
-115 -47 -153 -58 l-70 -19 -40 34 c-48 41 -107 75 -171 97 -59 20 -192 29
-254 16z"/>
</g>
</svg>
