<?xml version="1.0" standalone="no"?>
<!DOCTYPE svg PUBLIC "-//W3C//DTD SVG 20010904//EN"
 "http://www.w3.org/TR/2001/REC-SVG-20010904/DTD/svg10.dtd">
<svg version="1.0" xmlns="http://www.w3.org/2000/svg"
 width="256.000000pt" height="256.000000pt" viewBox="0 0 256.000000 256.000000"
 preserveAspectRatio="xMidYMid meet">

<g transform="translate(0.000000,256.000000) scale(0.100000,-0.100000)"
fill="#000000" stroke="none">
<path d="M0 1280 l0 -1280 1280 0 1280 0 0 1280 0 1280 -1280 0 -1280 0 0
-1280z m1713 705 c52 -13 86 -31 155 -82 21 -14 30 -15 70 -4 26 6 75 25 110
41 41 19 62 25 62 16 0 -22 -56 -100 -100 -140 l-43 -39 49 8 c27 4 70 15 96
25 27 10 48 14 48 8 0 -5 -39 -48 -86 -96 l-87 -86 -4 -81 c-17 -312 -171
-611 -406 -788 -316 -238 -745 -273 -1100 -90 l-72 38 105 6 c151 10 245 40
363 114 55 35 59 45 17 45 -103 0 -260 122 -285 222 -6 22 -4 23 35 20 22 -2
57 -1 78 3 l37 7 -37 12 c-132 46 -232 164 -245 291 l-6 53 54 -19 c30 -10 64
-18 76 -19 20 0 17 5 -22 45 -92 95 -128 234 -91 356 26 88 26 88 92 19 65
-68 160 -141 245 -189 107 -60 285 -115 397 -122 l43 -3 2 84 c2 70 7 96 30
145 77 164 247 245 420 200z"/>
</g>
</svg>
