<?xml version="1.0" standalone="no"?>
<!DOCTYPE svg PUBLIC "-//W3C//DTD SVG 20010904//EN"
 "http://www.w3.org/TR/2001/REC-SVG-20010904/DTD/svg10.dtd">
<svg version="1.0" xmlns="http://www.w3.org/2000/svg"
 width="256.000000pt" height="256.000000pt" viewBox="0 0 256.000000 256.000000"
 preserveAspectRatio="xMidYMid meet">

<g transform="translate(0.000000,256.000000) scale(0.100000,-0.100000)"
fill="#000000" stroke="none">
<path d="M451 2169 c-171 -20 -276 -63 -345 -140 -97 -108 -110 -206 -103
-783 4 -366 6 -419 24 -486 59 -230 193 -335 468 -369 116 -14 1454 -15 1580
-1 227 25 347 96 417 245 59 127 62 163 63 680 0 414 -2 478 -17 538 -47 182
-132 257 -343 305 -60 13 -185 16 -870 18 -440 1 -834 -2 -874 -7z m916 -660
c151 -78 283 -149 294 -158 30 -25 34 -71 10 -103 -24 -30 -547 -307 -595
-315 -22 -3 -39 1 -59 17 l-27 21 0 317 c0 310 0 316 22 339 13 14 33 23 51
23 19 0 133 -53 304 -141z"/>
</g>
</svg>
