<?xml version="1.0" standalone="no"?>
<!DOCTYPE svg PUBLIC "-//W3C//DTD SVG 20010904//EN"
 "http://www.w3.org/TR/2001/REC-SVG-20010904/DTD/svg10.dtd">
<svg version="1.0" xmlns="http://www.w3.org/2000/svg"
 width="410.000000pt" height="410.000000pt" viewBox="0 0 410.000000 410.000000"
 preserveAspectRatio="xMidYMid meet">

<g transform="translate(0.000000,410.000000) scale(0.100000,-0.100000)"
fill="#000000" stroke="none">
<path d="M1755 4085 c-305 -49 -597 -161 -839 -323 -495 -331 -815 -839 -902
-1432 -20 -141 -15 -497 9 -625 84 -443 270 -799 576 -1106 324 -323 717 -519
1173 -584 135 -19 422 -19 558 0 353 50 684 189 972 406 106 80 297 271 377
377 217 288 356 619 406 972 19 136 19 423 0 558 -65 456 -261 849 -584 1173
-307 306 -661 491 -1106 576 -115 22 -520 27 -640 8z m1076 -1258 c181 -18
224 -33 292 -106 79 -85 78 -74 75 -682 l-3 -534 -29 -53 c-33 -58 -82 -103
-143 -128 -76 -32 -288 -45 -845 -51 -684 -7 -1038 11 -1129 58 -58 29 -102
72 -129 126 l-25 48 -3 545 -3 545 31 62 c32 65 81 112 144 138 40 17 167 32
371 45 226 13 1213 4 1396 -13z"/>
<path d="M1690 2056 c0 -245 2 -446 5 -446 17 0 774 445 767 451 -11 10 -734
427 -754 434 -17 7 -18 -18 -18 -439z"/>
</g>
</svg>
